# xmcd CD database file
#
# Track frame offsets:
#	150
#	22833
#	39777
#
# Disc length: 823 seconds
#
# Revision: 0
# Processed by: cddbd v1.5.1PL0 Copyright (c) Steve Scherf et al.
# Submitted via: CDex 1.50beta8
#
DISCID=11033503
DTITLE=LadyMarmalade - LadyMarmalade
DYEAR=2005
DGENRE=JPop
TTITLE0=Best Friend
TTITLE1=BEAT
TTITLE2=絆
EXTD=YEAR: 2005
EXTT0=
EXTT1=
EXTT2=
PLAYORDER=
